<svg width="115" height="115" viewBox="0 0 115 115" fill="none" xmlns="http://www.w3.org/2000/svg">
<path d="M92.7037 102.91C67.6345 122.41 31.5872 117.822 12.0889 92.7498C-7.40943 67.6777 -2.82162 31.6263 22.2476 12.1258C22.4115 11.962 22.5753 11.7981 22.903 11.6342C48.1361 -7.53854 84.1835 -2.45859 103.354 22.7774C122.361 48.0133 117.609 83.5731 92.7037 102.91Z" fill="url(#paint0_linear)"/>
<path d="M66.6514 15.4031L23.8862 83.4091L77.4656 62.5976L66.6514 15.4031Z" fill="#9CEBFF"/>
<path opacity="0.7" d="M57.9673 29.1682L84.5112 93.569L66.6514 15.4031L57.9673 29.1682Z" fill="white"/>
<path d="M56.4924 70.7911L72.5499 64.5641L84.5111 93.7329L56.4924 70.7911Z" fill="#32BEDD"/>
<defs>
<linearGradient id="paint0_linear" x1="57.8592" y1="115.398" x2="57.8592" y2="0.563755" gradientUnits="userSpaceOnUse">
<stop stop-color="#198AB3"/>
<stop offset="0.4417" stop-color="#28B7DB"/>
<stop offset="0.7753" stop-color="#32D4F5"/>
</linearGradient>
</defs>
</svg>
